<?xml version="1.0" encoding="UTF-8"?>
<svg width="128" height="128" viewBox="0 0 128 128" fill="none" xmlns="http://www.w3.org/2000/svg">
  <path d="M44.6 67.2c0 1.4-.1 2.6-.4 3.8-.3 1.2-.7 2.2-1.3 3.1-.6.9-1.3 1.6-2.2 2.1-.9.5-1.9.8-3.1.8-1.1 0-2.1-.3-3-.8-.9-.5-1.6-1.2-2.2-2.1-.6-.9-1-1.9-1.3-3.1-.3-1.2-.4-2.4-.4-3.8 0-1.4.1-2.6.4-3.8.3-1.2.7-2.2 1.3-3.1.6-.9 1.3-1.6 2.2-2.1.9-.5 1.9-.8 3.1-.8 1.1 0 2.1.3 3 .8.9.5 1.6 1.2 2.2 2.1.6.9 1 1.9 1.3 3.1.3 1.2.4 2.4.4 3.8zm-4.8 0c0-1.1-.1-2-.3-2.8-.2-.8-.5-1.5-1-2-.5-.5-1.1-.8-1.8-.8-.7 0-1.3.3-1.8.8-.5.5-.8 1.2-1 2-.2.8-.3 1.7-.3 2.8 0 1.1.1 2 .3 2.8.2.8.5 1.5 1 2 .5.5 1.1.8 1.8.8.7 0 1.3-.3 1.8-.8.5-.5.8-1.2 1-2 .2-.8.3-1.7.3-2.8zm15.6 11.4h-4.8V67.2c0-1.4.1-2.6.4-3.8.3-1.2.7-2.2 1.3-3.1.6-.9 1.3-1.6 2.2-2.1.9-.5 1.9-.8 3.1-.8 1.1 0 2.1.3 3 .8.9.5 1.6 1.2 2.2 2.1.6.9 1 1.9 1.3 3.1.3 1.2.4 2.4.4 3.8v11.4h-4.8V67.2c0-1.1-.1-2-.3-2.8-.2-.8-.5-1.5-1-2-.5-.5-1.1-.8-1.8-.8-.7 0-1.3.3-1.8.8-.5.5-.8 1.2-1 2-.2.8-.3 1.7-.3 2.8v11.4zm15.6 0h-4.8V67.2c0-1.4.1-2.6.4-3.8.3-1.2.7-2.2 1.3-3.1.6-.9 1.3-1.6 2.2-2.1.9-.5 1.9-.8 3.1-.8 1.1 0 2.1.3 3 .8.9.5 1.6 1.2 2.2 2.1.6.9 1 1.9 1.3 3.1.3 1.2.4 2.4.4 3.8v11.4h-4.8V67.2c0-1.1-.1-2-.3-2.8-.2-.8-.5-1.5-1-2-.5-.5-1.1-.8-1.8-.8-.7 0-1.3.3-1.8.8-.5.5-.8 1.2-1 2-.2.8-.3 1.7-.3 2.8v11.4zm15.6 0h-4.8V67.2c0-1.4.1-2.6.4-3.8.3-1.2.7-2.2 1.3-3.1.6-.9 1.3-1.6 2.2-2.1.9-.5 1.9-.8 3.1-.8 1.1 0 2.1.3 3 .8.9.5 1.6 1.2 2.2 2.1.6.9 1 1.9 1.3 3.1.3 1.2.4 2.4.4 3.8v11.4h-4.8V67.2c0-1.1-.1-2-.3-2.8-.2-.8-.5-1.5-1-2-.5-.5-1.1-.8-1.8-.8-.7 0-1.3.3-1.8.8-.5.5-.8 1.2-1 2-.2.8-.3 1.7-.3 2.8v11.4z" fill="#232F3E"/>
</svg> 